<svg xmlns="http://www.w3.org/2000/svg" width="38" height="38" viewBox="0 0 38 38">
  <g id="pinterest" transform="translate(12033 15609)">
    <circle id="Ellipse_11864" data-name="Ellipse 11864" cx="19" cy="19" r="19" transform="translate(-12033 -15609)" fill="#f60"/>
    <path id="pinterest-p-brands-solid" d="M8.175,6.5C4.063,6.5,0,9.241,0,13.677,0,16.5,1.587,18.1,2.549,18.1c.4,0,.625-1.106.625-1.419,0-.373-.95-1.166-.95-2.717A5.415,5.415,0,0,1,7.85,8.459c2.729,0,4.748,1.551,4.748,4.4,0,2.128-.854,6.119-3.618,6.119a1.779,1.779,0,0,1-1.851-1.755c0-1.515,1.058-2.981,1.058-4.544,0-2.653-3.763-2.172-3.763,1.034a4.708,4.708,0,0,0,.385,2.032c-.553,2.38-1.683,5.927-1.683,8.379,0,.757.108,1.5.18,2.26.136.152.068.136.276.06,2.02-2.765,1.947-3.306,2.861-6.924A3.25,3.25,0,0,0,9.22,20.962c4.256,0,6.167-4.147,6.167-7.886C15.387,9.1,11.949,6.5,8.175,6.5Z" transform="translate(-12022 -15606.5)" fill="#fff"/>
  </g>
</svg>
